<svg version="1.1" viewBox="0.0 0.0 487.6482939632546 403.6089238845144" fill="none" stroke="none" stroke-linecap="square" stroke-miterlimit="10" xmlns:xlink="http://www.w3.org/1999/xlink" xmlns="http://www.w3.org/2000/svg"><clipPath id="p.0"><path d="m0 0l487.6483 0l0 403.60892l-487.6483 0l0 -403.60892z" clip-rule="nonzero"/></clipPath><g clip-path="url(#p.0)"><path fill="#000000" fill-opacity="0.0" d="m0 0l487.6483 0l0 403.60892l-487.6483 0z" fill-rule="evenodd"/><path fill="#000000" fill-opacity="0.0" d="m3.824147 51.416927l0 0c0 -25.330227 20.534208 -45.864433 45.864433 -45.864433l388.27115 0c12.164001 0 23.829803 4.832132 32.43106 13.433382c8.601227 8.60125 13.43338 20.267046 13.43338 32.431053l0 183.45222c0 25.330246 -20.53421 45.864426 -45.86444 45.864426l-388.27115 0c-25.330225 0 -45.864433 -20.53418 -45.864433 -45.864426z" fill-rule="evenodd"/><path stroke="#ffffff" stroke-width="4.0" stroke-linejoin="round" stroke-linecap="butt" d="m3.824147 51.416927l0 0c0 -25.330227 20.534208 -45.864433 45.864433 -45.864433l388.27115 0c12.164001 0 23.829803 4.832132 32.43106 13.433382c8.601227 8.60125 13.43338 20.267046 13.43338 32.431053l0 183.45222c0 25.330246 -20.53421 45.864426 -45.86444 45.864426l-388.27115 0c-25.330225 0 -45.864433 -20.53418 -45.864433 -45.864426z" fill-rule="evenodd"/><path fill="#000000" fill-opacity="0.0" d="m51.902885 41.99344l383.8425 0l0 202.29921l-383.8425 0z" fill-rule="evenodd"/><path stroke="#ffffff" stroke-width="4.0" stroke-linejoin="round" stroke-linecap="butt" d="m51.902885 41.99344l383.8425 0l0 202.29921l-383.8425 0z" fill-rule="evenodd"/><path fill="#000000" fill-opacity="0.0" d="m205.47769 280.73358l76.6929 0l0 81.35434l-76.6929 0z" fill-rule="evenodd"/><path stroke="#ffffff" stroke-width="4.0" stroke-linejoin="round" stroke-linecap="butt" d="m205.47769 280.73358l76.6929 0l0 81.35434l-76.6929 0z" fill-rule="evenodd"/><path fill="#000000" fill-opacity="0.0" d="m76.102486 362.08792l335.44333 0l5.994873 5.994873l0 29.973633l0 0l-347.43307 0l0 0l0 -29.973633z" fill-rule="evenodd"/><path stroke="#ffffff" stroke-width="4.0" stroke-linejoin="round" stroke-linecap="butt" d="m76.102486 362.08792l335.44333 0l5.994873 5.994873l0 29.973633l0 0l-347.43307 0l0 0l0 -29.973633z" fill-rule="evenodd"/></g></svg>