<?xml version="1.0" encoding="UTF-8"?>
<!DOCTYPE svg PUBLIC "-//W3C//DTD SVG 1.1//EN" "http://www.w3.org/Graphics/SVG/1.1/DTD/svg11.dtd">
<!-- Creator: CorelDRAW -->
<svg xmlns="http://www.w3.org/2000/svg" xml:space="preserve" width="6.82666in" height="6.82666in" style="shape-rendering:geometricPrecision; text-rendering:geometricPrecision; image-rendering:optimizeQuality; fill-rule:evenodd; clip-rule:evenodd"
viewBox="0 0 6.82666 6.82666"
 xmlns:xlink="http://www.w3.org/1999/xlink">
 <defs>
  <style type="text/css">
   <![CDATA[
    .fil2 {fill:none}
    .fil3 {fill:#263238}
    .fil5 {fill:#37474F}
    .fil10 {fill:#546E7A}
    .fil9 {fill:#78909C}
    .fil1 {fill:#D81B60}
    .fil0 {fill:#F06292}
    .fil4 {fill:#182329;fill-rule:nonzero}
    .fil7 {fill:#1B262B;fill-rule:nonzero}
    .fil6 {fill:#37474F;fill-rule:nonzero}
    .fil8 {fill:#90A4AE;fill-rule:nonzero}
   ]]>
  </style>
   <clipPath id="id0">
    <path d="M3.41333 -3.93701e-006c1.88513,0 3.41333,1.5282 3.41333,3.41333 0,1.88513 -1.5282,3.41333 -3.41333,3.41333 -1.88513,0 -3.41333,-1.5282 -3.41333,-3.41333 0,-1.88513 1.5282,-3.41333 3.41333,-3.41333z"/>
   </clipPath>
 </defs>
 <g id="Layer_x0020_1">
  <metadata id="CorelCorpID_0Corel-Layer"/>
  <path class="fil0" d="M3.41333 -3.93701e-006c1.88513,0 3.41333,1.5282 3.41333,3.41333 0,1.88513 -1.5282,3.41333 -3.41333,3.41333 -1.88513,0 -3.41333,-1.5282 -3.41333,-3.41333 0,-1.88513 1.5282,-3.41333 3.41333,-3.41333z"/>
  <g style="clip-path:url(#id0)">
   <g id="_637653304">
    <g>
     <polygon id="_2169525121" class="fil1" points="3.79503,2.19996 7.5813,5.98623 7.57712,5.98905 7.57284,5.99183 7.56848,5.99459 7.56402,5.9973 7.55948,5.99999 7.55486,6.00264 7.55016,6.00526 7.54537,6.00785 7.54052,6.0104 7.53559,6.01293 7.5306,6.01541 7.52554,6.01787 7.52041,6.02029 7.51523,6.02267 7.50999,6.02503 7.50469,6.02735 7.49935,6.02964 7.49395,6.0319 7.48851,6.03412 7.48303,6.03631 7.47751,6.03847 7.47195,6.04059 7.46636,6.04269 7.46073,6.04474 7.45508,6.04677 7.44941,6.04876 7.44371,6.05072 7.43799,6.05264 7.43226,6.05454 7.42651,6.05639 7.42075,6.05822 7.41498,6.06002 3.62872,2.27374 3.63448,2.27195 3.64024,2.27012 3.64599,2.26826 3.65172,2.26637 3.65744,2.26444 3.66314,2.26249 3.66881,2.2605 3.67446,2.25847 3.68009,2.25641 3.68568,2.25432 3.69124,2.2522 3.69676,2.25004 3.70224,2.24785 3.70769,2.24563 3.71308,2.24337 3.71843,2.24108 3.72372,2.23876 3.72896,2.2364 3.73415,2.23402 3.73927,2.23159 3.74433,2.22914 3.74932,2.22665 3.75425,2.22413 3.75911,2.22158 3.76389,2.21899 3.76859,2.21637 3.77322,2.21372 3.77776,2.21103 3.78221,2.20831 3.78657,2.20556 3.79085,2.20278 "/>
     <path id="_216952656" class="fil1" d="M5.79534 7.13306l0 0zm-3.78627 -3.78627l0 0z"/>
     <path id="_216919320" class="fil1" d="M7.44416 5.52663l0 0zm-3.78627 -3.78627l0 0z"/>
     <polygon id="_216918864" class="fil1" points="3.6086,1.62694 7.39487,5.41321 7.39787,5.41662 7.4008,5.42009 7.40365,5.42361 7.40641,5.42719 7.40909,5.43082 7.41168,5.4345 7.41418,5.43823 7.41659,5.44201 7.41892,5.44584 7.42115,5.44972 7.42329,5.45365 7.42534,5.45761 7.42729,5.46163 7.42914,5.46569 7.4309,5.4698 7.43255,5.47394 7.43411,5.47813 7.43556,5.48235 7.43691,5.48662 7.43815,5.49092 7.43929,5.49526 7.44032,5.49965 7.44124,5.50406 7.44205,5.50851 7.44275,5.51299 7.44333,5.51751 7.44381,5.52206 7.44416,5.52663 3.65789,1.74036 3.65754,1.73578 3.65707,1.73124 3.65648,1.72672 3.65578,1.72224 3.65497,1.71779 3.65405,1.71337 3.65302,1.70899 3.65188,1.70465 3.65064,1.70035 3.64929,1.69608 3.64784,1.69185 3.64628,1.68767 3.64463,1.68352 3.64287,1.67942 3.64102,1.67536 3.63907,1.67134 3.63702,1.66737 3.63489,1.66345 3.63265,1.65957 3.63033,1.65574 3.62791,1.65196 3.62541,1.64823 3.62282,1.64455 3.62014,1.64092 3.61738,1.63734 3.61454,1.63382 3.61161,1.63035 "/>
     <polygon id="_216918744" class="fil1" points="3.87236,1.99653 7.65863,5.7828 7.66024,5.78952 7.66165,5.79624 7.66284,5.80296 7.66381,5.80966 7.66457,5.81635 7.66511,5.82303 7.66542,5.82969 7.6655,5.83633 7.66534,5.84295 7.66495,5.84954 7.66431,5.85611 7.66344,5.86265 7.66231,5.86915 7.66094,5.87561 7.65931,5.88204 7.65743,5.88842 3.87116,2.10215 3.87304,2.09576 3.87467,2.08934 3.87605,2.08287 3.87717,2.07637 3.87805,2.06984 3.87868,2.06327 3.87907,2.05668 3.87923,2.05006 3.87915,2.04342 3.87884,2.03676 3.87831,2.03008 3.87755,2.02339 3.87657,2.01669 3.87538,2.00997 3.87397,2.00325 "/>
     <polygon id="_216918888" class="fil1" points="3.87116,2.10215 7.65743,5.88842 7.65509,5.89529 7.65244,5.90207 7.6495,5.90877 7.64624,5.91538 7.64266,5.9219 7.63877,5.92831 7.63455,5.93463 7.63,5.94083 7.62512,5.94693 7.61991,5.95292 7.61435,5.95879 7.60844,5.96454 7.60219,5.97016 7.59559,5.97565 7.58862,5.98101 7.5813,5.98623 3.79503,2.19996 3.80235,2.19474 3.80932,2.18938 3.81593,2.18389 3.82218,2.17826 3.82808,2.17252 3.83364,2.16665 3.83885,2.16066 3.84373,2.15456 3.84828,2.14835 3.8525,2.14204 3.85639,2.13563 3.85997,2.12911 3.86323,2.1225 3.86618,2.1158 3.86882,2.10902 "/>
     <polygon id="_216918648" class="fil1" points="3.62872,2.27374 7.41498,6.06002 7.41815,6.06395 7.4213,6.06794 7.42441,6.07198 7.42748,6.07609 7.43053,6.08024 7.43354,6.08446 7.43653,6.08873 7.43948,6.09305 7.4424,6.09743 7.44528,6.10186 7.44814,6.10635 7.45096,6.11088 7.45374,6.11547 7.4565,6.12011 7.45921,6.1248 7.46189,6.12954 3.67563,2.34327 3.67294,2.33853 3.67023,2.33384 3.66748,2.3292 3.66469,2.32461 3.66187,2.32007 3.65902,2.31559 3.65613,2.31116 3.65321,2.30678 3.65026,2.30246 3.64728,2.29819 3.64426,2.29397 3.64121,2.28981 3.63814,2.28571 3.63503,2.28167 3.63189,2.27768 "/>
     <polygon id="_216919296" class="fil1" points="4.5053,2.9368 8.29157,6.72307 8.29573,6.73469 8.29987,6.74637 8.30399,6.75809 8.30809,6.76986 8.31218,6.78168 8.31624,6.79354 8.32028,6.80545 8.3243,6.81741 8.32831,6.82941 8.33229,6.84145 8.33625,6.85353 8.34019,6.86565 8.34412,6.87781 8.34802,6.89001 8.3519,6.90224 8.35577,6.91451 8.35961,6.92681 8.36343,6.93915 8.36724,6.95151 8.37102,6.96391 8.37478,6.97634 8.37852,6.9888 8.38224,7.00128 8.38594,7.01379 8.38963,7.02632 8.39329,7.03888 8.39693,7.05146 8.40055,7.06407 8.40415,7.07669 8.40773,7.08933 8.41129,7.102 8.41483,7.11467 4.62856,3.3284 4.62502,3.31572 4.62146,3.30306 4.61788,3.29042 4.61428,3.2778 4.61066,3.26519 4.60702,3.25261 4.60336,3.24005 4.59968,3.22752 4.59598,3.21501 4.59225,3.20252 4.58851,3.19007 4.58475,3.17764 4.58097,3.16524 4.57717,3.15287 4.57334,3.14054 4.5695,3.12824 4.56563,3.11597 4.56175,3.10374 4.55785,3.09154 4.55393,3.07938 4.54998,3.06726 4.54602,3.05518 4.54204,3.04314 4.53804,3.03114 4.53401,3.01918 4.52997,3.00727 4.52591,2.99541 4.52183,2.98359 4.51772,2.97181 4.51361,2.96009 4.50946,2.94842 "/>
     <polygon id="_216919368" class="fil1" points="4.19615,2.34506 7.98241,6.13133 7.99301,6.14343 8.00353,6.15596 8.01397,6.16893 4.2277,2.38266 4.21726,2.36969 4.20674,2.35715 "/>
     <polygon id="_216918984" class="fil1" points="4.2277,2.38266 8.01397,6.16893 8.01509,6.17035 8.01621,6.17178 8.01733,6.1732 8.01844,6.17464 8.01956,6.17608 8.02067,6.17753 8.02178,6.17898 8.0229,6.18044 4.23663,2.39417 4.23552,2.39271 4.2344,2.39126 4.23329,2.38981 4.23217,2.38837 4.23106,2.38693 4.22994,2.3855 4.22882,2.38408 "/>
     <polygon id="_216919392" class="fil1" points="4.67659,1.68454 8.46285,5.47081 8.46687,5.47679 8.4697,5.48348 8.47119,5.49071 8.4712,5.49832 4.68494,1.71205 4.68492,1.70444 4.68343,1.69721 4.68061,1.69052 "/>
     <polygon id="_216919920" class="fil1" points="4.68494,1.71205 8.4712,5.49832 8.41981,6.01219 4.63355,2.22591 "/>
     <polygon id="_216920064" class="fil1" points="4.63355,2.22591 8.41981,6.01219 8.41907,6.0168 8.4178,6.02119 8.41603,6.02533 8.4138,6.02918 8.41116,6.03271 8.40813,6.0359 8.40475,6.03871 8.40107,6.04112 4.6148,2.25485 4.61848,2.25244 4.62186,2.24963 4.62489,2.24644 4.62754,2.24291 4.62976,2.23906 4.63153,2.23492 4.6328,2.23053 "/>
     <polygon id="_216919800" class="fil1" points="3.65789,1.74036 7.44416,5.52663 7.44392,5.53231 3.65765,1.74604 "/>
     <polygon id="_216920088" class="fil1" points="4.30449,2.49472 8.09076,6.281 8.09759,6.29244 8.1044,6.30406 8.11117,6.31586 8.1179,6.32783 8.1246,6.33998 8.13126,6.3523 8.13788,6.36478 8.14447,6.37743 8.15102,6.39024 8.15754,6.40321 8.16402,6.41633 8.17046,6.42961 8.17686,6.44304 8.18323,6.45662 8.18956,6.47034 8.19586,6.4842 8.20212,6.49821 8.20834,6.51235 8.21453,6.52662 8.22068,6.54102 8.22679,6.55556 8.23286,6.57021 8.2389,6.58499 8.2449,6.59989 8.25087,6.61491 8.25679,6.63004 8.26268,6.64528 8.26854,6.66063 8.27435,6.67609 8.28013,6.69165 8.28587,6.70731 8.29157,6.72307 4.5053,2.9368 4.4996,2.92104 4.49386,2.90538 4.48808,2.88982 4.48227,2.87436 4.47641,2.85901 4.47052,2.84377 4.4646,2.82864 4.45863,2.81362 4.45263,2.79872 4.44659,2.78394 4.44052,2.76928 4.43441,2.75475 4.42826,2.74035 4.42207,2.72607 4.41585,2.71194 4.40959,2.69793 4.4033,2.68407 4.39696,2.67035 4.39059,2.65677 4.38419,2.64334 4.37775,2.63006 4.37127,2.61694 4.36475,2.60397 4.3582,2.59116 4.35161,2.57851 4.34499,2.56602 4.33833,2.55371 4.33163,2.54156 4.3249,2.52959 4.31813,2.51779 4.31133,2.50617 "/>
     <path id="_216919944" class="fil1" d="M8.60386 7.13306l0 0zm-3.78627 -3.78627l0 0z"/>
     <polygon id="_216919680" class="fil1" points="5.08938,3.43713 8.87565,7.22341 8.87803,7.22613 8.88013,7.22906 8.88194,7.23218 8.88344,7.23545 8.88463,7.23885 8.88549,7.24237 8.886,7.24597 8.88617,7.24964 8.88596,7.25334 8.88537,7.25707 8.8844,7.26078 5.09813,3.47451 5.09911,3.4708 5.09969,3.46707 5.0999,3.46337 5.09974,3.4597 5.09922,3.4561 5.09836,3.45258 5.09718,3.44918 5.09567,3.44591 5.09386,3.44279 5.09176,3.43986 "/>
     <polygon id="_216919968" class="fil1" points="5.09813,3.47451 8.8844,7.26078 8.88306,7.26438 8.88139,7.26776 8.87943,7.27091 8.87718,7.27381 8.87469,7.27646 8.87196,7.27884 8.86903,7.28094 8.86591,7.28275 8.86264,7.28425 8.85924,7.28544 8.85572,7.2863 8.85212,7.28681 8.84845,7.28697 8.84475,7.28677 8.84102,7.28618 8.83731,7.28521 5.05104,3.49894 5.05476,3.49991 5.05848,3.5005 5.06219,3.5007 5.06585,3.50054 5.06945,3.50002 5.07297,3.49917 5.07637,3.49798 5.07965,3.49648 5.08276,3.49467 5.08569,3.49257 5.08842,3.49019 5.09091,3.48754 5.09316,3.48463 5.09513,3.48148 5.09679,3.47811 "/>
     <polygon id="_216919536" class="fil1" points="5.05104,3.49894 8.83731,7.28521 8.59289,7.20741 4.80662,3.42114 "/>
     <polygon id="_216920112" class="fil1" points="4.80662,3.42114 8.59289,7.20741 8.44194,7.21483 4.65567,3.42856 "/>
     <polygon id="_216920520" class="fil1" points="2.22033,1.68442 6.0066,5.47069 6.01067,5.4767 6.01354,5.4835 6.01504,5.49096 2.22877,1.70469 2.22727,1.69723 2.22441,1.69043 "/>
     <polygon id="_216920760" class="fil1" points="2.5357,2.49266 6.32197,6.27893 6.01041,6.04112 2.22414,2.25485 "/>
     <polygon id="_216920736" class="fil1" points="4.79424,4.87283 8.58051,8.65911 8.57629,8.65985 8.57195,8.66063 8.56752,8.66142 8.56299,8.66224 8.55839,8.66309 8.55371,8.66396 8.54898,8.66486 8.54419,8.66578 4.75792,4.87951 4.76271,4.87859 4.76744,4.87769 4.77212,4.87681 4.77672,4.87597 4.78125,4.87515 4.78569,4.87435 4.79002,4.87358 "/>
     <polygon id="_216920808" class="fil1" points="3.80823,4.27076 7.5945,8.05703 7.59031,8.06671 7.58606,8.07629 7.58173,8.08575 7.57733,8.0951 7.57286,8.10435 7.56833,8.11347 7.56372,8.12249 7.55905,8.13138 7.55431,8.14016 7.5495,8.14882 7.54463,8.15737 7.53969,8.16578 7.53469,8.17408 7.52963,8.18225 7.5245,8.1903 7.51932,8.19822 7.51407,8.20601 7.50876,8.21367 7.50339,8.2212 7.49796,8.22861 7.49248,8.23587 7.48694,8.243 7.48134,8.25 7.47569,8.25686 7.46997,8.26357 7.46421,8.27016 7.45839,8.27659 7.45252,8.28289 7.4466,8.28904 7.44062,8.29504 7.4346,8.30091 7.42852,8.30661 3.64226,4.52034 3.64833,4.51463 3.65435,4.50877 3.66033,4.50277 3.66625,4.49662 3.67212,4.49032 3.67794,4.48389 3.6837,4.4773 3.68942,4.47059 3.69507,4.46373 3.70067,4.45673 3.70621,4.4496 3.7117,4.44233 3.71712,4.43493 3.72249,4.4274 3.7278,4.41974 3.73305,4.41195 3.73824,4.40403 3.74336,4.39598 3.74843,4.38781 3.75343,4.37951 3.75836,4.37109 3.76323,4.36255 3.76804,4.35389 3.77278,4.34511 3.77745,4.33622 3.78206,4.3272 3.78659,4.31807 3.79106,4.30883 3.79546,4.29948 3.79979,4.29002 3.80404,4.28044 "/>
     <polygon id="_216920280" class="fil1" points="4.16646,4.68315 7.95273,8.46942 7.95988,8.49711 4.17361,4.71084 "/>
     <polygon id="_216920400" class="fil1" points="4.17361,4.71084 7.95988,8.49711 7.96142,8.4991 7.96283,8.5012 7.9641,8.5034 7.96522,8.5057 7.96619,8.50809 7.967,8.51057 7.96765,8.51313 7.96811,8.51576 4.18185,4.72949 4.18138,4.72685 4.18074,4.7243 4.17993,4.72182 4.17895,4.71943 4.17783,4.71713 4.17656,4.71493 4.17515,4.71283 "/>
     <polygon id="_216920184" class="fil1" points="2.17726,3.45153 5.96353,7.2378 5.80631,7.20741 2.02004,3.42114 "/>
     <polygon id="_216920592" class="fil1" points="2.02004,3.42114 5.80631,7.20741 5.56189,7.28521 1.77562,3.49894 "/>
     <polygon id="_216920712" class="fil1" points="3.03072,4.27076 6.81698,8.05703 6.81191,8.0648 6.8068,8.07254 6.80168,8.08025 6.79653,8.08792 6.79136,8.09556 6.78617,8.10317 6.78095,8.11074 6.77571,8.11827 6.77045,8.12577 6.76517,8.13324 6.75986,8.14067 6.75454,8.14806 6.74919,8.15542 6.74382,8.16274 6.73843,8.17002 6.73302,8.17727 6.72759,8.18448 6.72215,8.19165 6.71668,8.19878 6.71119,8.20587 6.70568,8.21293 6.70015,8.21994 6.6946,8.22691 6.68903,8.23385 6.68345,8.24074 6.67784,8.24759 6.67222,8.2544 6.66658,8.26117 6.66092,8.26789 6.65524,8.27458 6.64955,8.28122 6.64384,8.28781 2.85757,4.50154 2.86328,4.49494 2.86898,4.48831 2.87465,4.48162 2.88031,4.4749 2.88595,4.46813 2.89157,4.46132 2.89718,4.45447 2.90276,4.44757 2.90833,4.44064 2.91388,4.43367 2.91941,4.42665 2.92492,4.4196 2.93041,4.41251 2.93588,4.40538 2.94133,4.39821 2.94676,4.391 2.95217,4.38375 2.95756,4.37647 2.96292,4.36915 2.96827,4.36179 2.97359,4.3544 2.9789,4.34697 2.98418,4.3395 2.98944,4.332 2.99468,4.32446 2.9999,4.31689 3.00509,4.30929 3.01026,4.30165 3.01541,4.29398 3.02054,4.28627 3.02564,4.27853 "/>
     <polygon id="_216920640" class="fil1" points="4.75792,4.87951 8.54419,8.66578 8.52564,8.66906 8.50705,8.67165 8.48842,8.67355 8.46976,8.67479 8.45107,8.67536 8.43237,8.67528 8.41365,8.67454 8.39491,8.67317 8.37616,8.67117 8.35741,8.66855 8.33866,8.66531 8.31991,8.66146 8.30117,8.65702 8.28244,8.65198 8.26374,8.64636 8.24506,8.64017 8.22639,8.6334 8.20777,8.62608 8.18918,8.61821 8.17062,8.6098 8.15211,8.60085 8.13366,8.59137 8.11525,8.58138 8.09691,8.57087 8.07862,8.55987 8.0604,8.54837 8.04225,8.53638 8.02418,8.52391 8.00619,8.51097 7.98828,8.49757 7.97046,8.48372 7.95273,8.46942 4.16646,4.68315 4.18419,4.69745 4.20201,4.7113 4.21992,4.7247 4.23791,4.73764 4.25598,4.75011 4.27413,4.76209 4.29235,4.77359 4.31064,4.7846 4.32898,4.79511 4.34739,4.8051 4.36585,4.81458 4.38435,4.82353 4.40291,4.83194 4.4215,4.83981 4.44013,4.84713 4.45879,4.85389 4.47747,4.86009 4.49618,4.86571 4.5149,4.87074 4.53364,4.87519 4.55239,4.87904 4.57114,4.88228 4.58989,4.8849 4.60864,4.8869 4.62738,4.88827 4.6461,4.889 4.66481,4.88909 4.68349,4.88852 4.70215,4.88728 4.72078,4.88537 4.73937,4.88279 "/>
     <polygon id="_216920160" class="fil1" points="3.64226,4.52034 7.42852,8.30661 7.4241,8.31916 7.41947,8.33143 7.41463,8.34342 7.4096,8.35512 7.40437,8.36653 7.39894,8.37763 7.39333,8.38841 7.38754,8.39887 7.38157,8.40901 7.37543,8.4188 7.36912,8.42825 7.36265,8.43735 7.35601,8.44608 7.34922,8.45444 7.34228,8.46242 7.3352,8.47001 7.32797,8.4772 7.32061,8.484 7.31311,8.49037 7.30549,8.49633 7.29774,8.50186 7.28988,8.50695 7.2819,8.5116 7.27381,8.51579 7.26563,8.51952 7.25733,8.52278 7.24894,8.52556 7.24047,8.52785 7.23191,8.52965 7.22326,8.53094 7.21453,8.53172 7.20574,8.53199 7.19694,8.53172 7.18822,8.53094 7.17957,8.52965 7.171,8.52785 7.16253,8.52556 7.15414,8.52278 7.14585,8.51952 7.13766,8.51579 7.12957,8.5116 7.12159,8.50695 7.11373,8.50186 7.10598,8.49633 7.09836,8.49037 7.09087,8.484 7.0835,8.4772 3.29724,4.69093 3.3046,4.69772 3.31209,4.7041 3.31972,4.71006 3.32746,4.71559 3.33533,4.72068 3.3433,4.72533 3.35139,4.72952 3.35958,4.73325 3.36787,4.7365 3.37626,4.73929 3.38474,4.74158 3.3933,4.74338 3.40195,4.74467 3.41067,4.74545 3.41947,4.74572 3.42826,4.74545 3.43699,4.74467 3.44564,4.74338 3.4542,4.74158 3.46268,4.73929 3.47107,4.7365 3.47936,4.73325 3.48755,4.72952 3.49563,4.72533 3.50361,4.72068 3.51148,4.71559 3.51922,4.71006 3.52685,4.7041 3.53434,4.69772 3.5417,4.69093 3.54893,4.68374 3.55601,4.67615 3.56295,4.66817 3.56974,4.65981 3.57638,4.65107 3.58285,4.64198 3.58916,4.63253 3.59531,4.62274 3.60128,4.6126 3.60707,4.60214 3.61268,4.59135 3.6181,4.58026 3.62333,4.56885 3.62837,4.55715 3.6332,4.54516 3.63783,4.53289 "/>
     <polygon id="_216921648" class="fil1" points="4.25485,5.23709 8.04112,9.02336 8.04143,9.03097 8.04025,9.03827 8.03772,9.04508 8.03396,9.05124 8.02909,9.05657 8.02326,9.0609 8.01658,9.06407 8.00919,9.06589 4.22292,5.27962 4.23031,5.2778 4.23699,5.27463 4.24283,5.2703 4.24769,5.26496 4.25145,5.25881 4.25398,5.252 4.25516,5.2447 "/>
     <polygon id="_216921600" class="fil1" points="1.77562,3.49894 5.56189,7.28521 5.55817,7.28618 5.55445,7.28677 5.55074,7.28697 5.54708,7.28681 5.54348,7.2863 5.53996,7.28544 5.53656,7.28425 5.53328,7.28275 5.53017,7.28094 5.52724,7.27884 5.52451,7.27646 1.73824,3.49019 1.74097,3.49257 1.7439,3.49467 1.74702,3.49648 1.75029,3.49798 1.75369,3.49917 1.75721,3.50002 1.76081,3.50054 1.76448,3.5007 1.76818,3.5005 1.77191,3.49991 "/>
     <polygon id="_216921672" class="fil1" points="2.67248,4.68315 6.45874,8.46942 6.44102,8.48372 6.4232,8.49757 6.40529,8.51097 6.3873,8.52391 6.36923,8.53638 6.35108,8.54837 6.33286,8.55987 6.31457,8.57087 6.29623,8.58138 6.27782,8.59137 6.25937,8.60085 6.24086,8.6098 6.22231,8.61821 6.20371,8.62608 6.18509,8.6334 6.16643,8.64017 6.14774,8.64636 6.12904,8.65198 6.11031,8.65702 6.09157,8.66146 6.07283,8.66531 6.05407,8.66855 6.03532,8.67117 6.01657,8.67317 5.99783,8.67454 5.97911,8.67528 5.96041,8.67536 5.94172,8.67479 5.92306,8.67355 5.90443,8.67165 5.88584,8.66906 5.86729,8.66578 2.08102,4.87951 2.09957,4.88279 2.11817,4.88537 2.1368,4.88728 2.15545,4.88852 2.17414,4.88909 2.19284,4.889 2.21157,4.88827 2.23031,4.8869 2.24906,4.8849 2.26781,4.88228 2.28656,4.87904 2.3053,4.87519 2.32404,4.87074 2.34277,4.86571 2.36148,4.86009 2.38016,4.85389 2.39882,4.84713 2.41744,4.83981 2.43604,4.83194 2.45459,4.82353 2.4731,4.81458 2.49156,4.8051 2.50996,4.79511 2.52831,4.7846 2.54659,4.77359 2.56481,4.76209 2.58296,4.75011 2.60103,4.73764 2.61902,4.7247 2.63693,4.7113 2.65475,4.69745 "/>
     <polygon id="_216921216" class="fil1" points="2.73016,4.74983 6.51643,8.5361 6.44483,9.03395 2.65856,5.24768 "/>
     <polygon id="_216921288" class="fil1" points="2.65856,5.24768 6.44483,9.03395 6.443,9.04135 6.43984,9.04803 6.43551,9.05387 6.43018,9.05873 6.42402,9.06249 6.4172,9.06502 6.40991,9.0662 6.4023,9.06589 2.61603,5.27962 2.62364,5.27993 2.63094,5.27875 2.63775,5.27622 2.64391,5.27246 2.64924,5.26759 2.65357,5.26176 2.65674,5.25508 "/>
     <polygon id="_216921120" class="fil1" points="2.61603,5.27962 6.4023,9.06589 6.39491,9.06407 6.38822,9.0609 6.38239,9.05657 2.59612,5.2703 2.60196,5.27463 2.60864,5.2778 "/>
     <polygon id="_216920928" class="fil1" points="2.76826,4.59673 6.55453,8.383 6.51643,8.5361 2.73016,4.74983 "/>
     <polygon id="_216921024" class="fil1" points="2.08102,4.87951 5.86729,8.66578 5.8625,8.66486 5.85777,8.66396 5.85309,8.66309 5.84849,8.66224 5.84396,8.66142 5.83953,8.66063 5.83519,8.65985 5.83097,8.65911 2.0447,4.87283 2.04893,4.87358 2.05326,4.87435 2.05769,4.87515 2.06222,4.87597 2.06683,4.87681 2.0715,4.87769 2.07624,4.87859 "/>
     <polygon id="_216921312" class="fil1" points="2.0447,4.87283 5.83097,8.65911 5.81993,8.65714 5.80953,8.65526 5.79978,8.65344 5.79065,8.65163 5.78212,8.64982 5.77418,8.64796 5.76682,8.64602 5.76002,8.64397 5.75375,8.64178 5.74801,8.63942 5.74279,8.63685 5.73805,8.63404 5.7338,8.63095 1.94753,4.84468 1.95178,4.84776 1.95652,4.85057 1.96174,4.85315 1.96748,4.85551 1.97375,4.8577 1.98055,4.85975 1.98791,4.86169 1.99585,4.86355 2.00438,4.86536 2.01351,4.86717 2.02326,4.86899 2.03366,4.87087 "/>
     <polygon id="_216921480" class="fil1" points="4.22292,5.27962 8.00919,9.06589 8.00157,9.0662 7.99428,9.06502 7.98746,9.06249 7.98131,9.05873 7.97598,9.05387 4.18971,5.26759 4.19504,5.27246 4.2012,5.27622 4.20801,5.27875 4.21531,5.27993 "/>
     <polygon id="_216921552" class="fil1" points="4.18185,4.72949 7.96811,8.51576 8.04112,9.02336 4.25485,5.23709 "/>
     <polygon id="_216922248" class="fil1" points="2.85757,4.50154 6.64384,8.28781 6.63837,8.29407 6.63289,8.30029 6.62739,8.30646 6.62187,8.3126 6.61635,8.31869 6.6108,8.32475 6.60524,8.33076 6.59966,8.33674 6.59407,8.34267 6.58846,8.34856 6.58285,8.3544 6.57721,8.36021 6.57156,8.36597 6.5659,8.37169 6.56022,8.37737 6.55453,8.383 2.76826,4.59673 2.77395,4.59109 2.77963,4.58542 2.7853,4.5797 2.79094,4.57394 2.79658,4.56813 2.8022,4.56228 2.8078,4.55639 2.81339,4.55046 2.81897,4.54449 2.82453,4.53848 2.83008,4.53242 2.83561,4.52633 2.84112,4.52019 2.84662,4.51402 2.8521,4.5078 "/>
     <polygon id="_216922272" class="fil1" points="2.22414,2.25485 6.01041,6.04112 6.00673,6.03871 6.00335,6.0359 2.21709,2.24963 2.22046,2.25244 "/>
     <polygon id="_216921792" class="fil1" points="2.22877,1.70469 6.01504,5.49096 6.06454,5.98601 2.27828,2.19974 "/>
     <polygon id="_216922056" class="fil1" points="3.21023,2.27374 6.9965,6.06002 6.99073,6.05822 6.98497,6.05639 6.97922,6.05454 6.97349,6.05264 6.96777,6.05072 6.96207,6.04876 6.9564,6.04677 6.95074,6.04474 6.94512,6.04269 6.93953,6.04059 6.93397,6.03847 6.92845,6.03631 6.92296,6.03412 6.91753,6.0319 6.91213,6.02964 6.90678,6.02735 6.90149,6.02503 6.89625,6.02267 6.89107,6.02029 6.88594,6.01787 6.88088,6.01541 6.87589,6.01293 6.87096,6.0104 6.8661,6.00785 6.86132,6.00526 6.85662,6.00264 6.852,5.99999 6.84746,5.9973 6.843,5.99459 6.83864,5.99183 6.83436,5.98905 6.83019,5.98623 3.04392,2.19996 3.04809,2.20278 3.05237,2.20556 3.05673,2.20831 3.06119,2.21103 3.06573,2.21372 3.07035,2.21637 3.07506,2.21899 3.07983,2.22158 3.08469,2.22413 3.08962,2.22665 3.09461,2.22914 3.09967,2.23159 3.1048,2.23402 3.10998,2.2364 3.11522,2.23876 3.12052,2.24108 3.12586,2.24337 3.13126,2.24563 3.1367,2.24785 3.14218,2.25004 3.1477,2.2522 3.15326,2.25432 3.15885,2.25641 3.16448,2.25847 3.17013,2.2605 3.1758,2.26249 3.1815,2.26444 3.18722,2.26637 3.19296,2.26826 3.1987,2.27012 3.20446,2.27195 "/>
     <polygon id="_216921720" class="fil1" points="4.90293,4.69076 8.68919,8.47703 8.69096,8.49151 8.69255,8.50509 8.69395,8.51781 8.69515,8.52971 8.69613,8.54081 8.69687,8.55114 8.69736,8.56075 8.69758,8.56966 8.69752,8.5779 8.69715,8.58551 8.69647,8.59252 8.69546,8.59897 8.69409,8.60488 8.69237,8.61029 8.69026,8.61523 8.68775,8.61973 8.68483,8.62383 8.68148,8.62756 8.67769,8.63095 8.67343,8.63404 8.66869,8.63685 8.66346,8.63942 8.65773,8.64178 8.65146,8.64397 8.64466,8.64602 8.6373,8.64796 8.62936,8.64982 8.62083,8.65163 8.6117,8.65344 8.60195,8.65526 8.59156,8.65714 8.58051,8.65911 4.79424,4.87283 4.80529,4.87087 4.81568,4.86899 4.82543,4.86717 4.83457,4.86536 4.84309,4.86355 4.85103,4.86169 4.85839,4.85975 4.8652,4.8577 4.87146,4.85551 4.8772,4.85315 4.88243,4.85057 4.88716,4.84776 4.89142,4.84468 4.89521,4.84129 4.89856,4.83756 4.90148,4.83346 4.90399,4.82896 4.9061,4.82402 4.90783,4.81861 4.90919,4.8127 4.9102,4.80625 4.91089,4.79924 4.91125,4.79163 4.91131,4.78339 4.91109,4.77448 4.91061,4.76487 4.90986,4.75454 4.90889,4.74344 4.90769,4.73154 4.90628,4.71882 4.90469,4.70524 "/>
     <polygon id="_216921744" class="fil1" points="3.04392,2.19996 6.83019,5.98623 6.82286,5.98101 6.81589,5.97565 6.80929,5.97016 6.80303,5.96454 6.79713,5.95879 3.01086,2.17252 3.01676,2.17826 3.02302,2.18389 3.02963,2.18938 3.03659,2.19474 "/>
     <polygon id="_216921936" class="fil1" points="4.65567,3.42856 8.44194,7.21483 8.45444,7.26291 8.46666,7.31103 8.47858,7.35913 8.4902,7.40715 8.50153,7.45504 8.51256,7.50272 8.52328,7.55015 8.5337,7.59727 8.54381,7.644 8.55363,7.6903 8.56313,7.7361 8.57232,7.78135 8.58121,7.82597 8.58978,7.86992 8.59804,7.91313 8.60599,7.95555 8.61362,7.99711 8.62094,8.03776 8.62793,8.07743 8.6346,8.11606 8.64096,8.15359 8.64699,8.18997 8.65269,8.22514 8.65807,8.25903 8.66312,8.29158 8.66785,8.32274 8.67224,8.35244 8.6763,8.38063 8.68002,8.40724 8.68342,8.43222 8.68647,8.4555 8.68919,8.47703 4.90293,4.69076 4.9002,4.66923 4.89715,4.64595 4.89376,4.62097 4.89003,4.59436 4.88597,4.56617 4.88158,4.53647 4.87685,4.50531 4.8718,4.47276 4.86643,4.43887 4.86072,4.4037 4.85469,4.36732 4.84833,4.32979 4.84166,4.29115 4.83467,4.25148 4.82735,4.21084 4.81972,4.16928 4.81178,4.12686 4.80352,4.08365 4.79494,4.0397 4.78606,3.99507 4.77686,3.94983 4.76736,3.90403 4.75755,3.85773 4.74743,3.811 4.73701,3.76388 4.72629,3.71645 4.71526,3.66877 4.70394,3.62088 4.69231,3.57286 4.68039,3.52476 4.66818,3.47664 "/>
     <polygon id="_216921840" class="fil1" points="3.82561,1.89762 7.61188,5.68389 7.61592,5.68989 7.61983,5.69594 7.62359,5.70201 7.62722,5.70811 7.63071,5.71424 7.63404,5.7204 7.63723,5.72658 7.64027,5.73278 7.64314,5.739 7.64586,5.74523 7.64841,5.75148 7.6508,5.75773 7.65302,5.76399 7.65507,5.77026 7.65694,5.77653 7.65863,5.7828 3.87236,1.99653 3.87067,1.99026 3.8688,1.98399 3.86675,1.97772 3.86454,1.97146 3.86215,1.9652 3.85959,1.95896 3.85687,1.95272 3.854,1.94651 3.85096,1.94031 3.84778,1.93413 3.84444,1.92797 3.84096,1.92184 3.83733,1.91574 3.83356,1.90967 3.82965,1.90362 "/>
     <polygon id="_216922344" class="fil1" points="3.79159,1.85431 7.57785,5.64059 7.58248,5.64587 7.587,5.65119 7.59142,5.65656 7.59573,5.66195 7.59994,5.66739 7.60404,5.67286 7.60802,5.67836 7.61188,5.68389 3.82561,1.89762 3.82175,1.89209 3.81777,1.88659 3.81367,1.88112 3.80946,1.87568 3.80515,1.87028 3.80073,1.86492 3.79621,1.8596 "/>
     <polygon id="_216921984" class="fil1" points="4.6148,2.25485 8.40107,6.04112 8.09076,6.281 4.30449,2.49472 "/>
    </g>
    <path id="_637653736" class="fil1" d="M4.81759 3.34679l0 0zm-2.80852 0l0 0zm1.64882 -1.60643l0 0zm0.167717 0.157256c0.0219055,0.0319291 0.0382126,0.0654764 0.046748,0.0989094 0.00916142,0.0358661 0.00955906,0.071685 -0.00120079,0.105622 -0.0116772,0.0368425 -0.0360787,0.0703228 -0.0761299,0.097811 -0.0440591,0.0302323 -0.10478,0.0548268 -0.166311,0.0737835 0.0169882,0.020815 0.0326969,0.0441063 0.0469094,0.0695276 0.0149961,-0.015378 0.0307165,-0.0302441 0.0471811,-0.0445669 0.0445433,-0.038752 0.0886299,-0.0646575 0.132154,-0.0790276 0.137539,-0.0454213 0.261776,0.0223504 0.372744,0.16298 0.00298425,0.00377953 0.00595669,0.00761811 0.0089252,0.0115079l0.324039 -0.194429 0.0495079 -0.495047c0.0020315,-0.0206457 0.0204173,-0.0357323 0.0410591,-0.0337008 0.0206417,0.00202756 0.0357283,0.0204134 0.0337008,0.0410591l-0.0513898 0.513866c-0.00124016,0.0125787 -0.00854724,0.0230945 -0.0187441,0.0289331l-0.310315 0.239878c0.0731535,0.121051 0.140185,0.27348 0.200815,0.442075 0.0444843,0.123689 0.0856181,0.256276 0.123256,0.391602l0.189031 0.0183898c0.00259843,0.000248031 0.0052126,0.000771654 0.00780315,0.00159055l0.248311 0.0790354c0.019748,0.00625591 0.030689,0.0273465 0.0244291,0.0470906 -0.00625591,0.019748 -0.0273465,0.030689 -0.0470906,0.0244291l-0.244421 -0.0777953 -0.150953 0.00742126c0.134996,0.512382 0.220063,1.04213 0.247256,1.2622 0.0196811,0.159299 0.0126969,0.160539 -0.108685,0.182075 -0.0110984,0.0019685 -0.0235,0.00416929 -0.0363189,0.00667717 -0.197654,0.0386181 -0.40289,-0.0414803 -0.591457,-0.196362l0.00714961 0.027689c0.00427559,0.00516142 0.00722047,0.0115315 0.00823228,0.0186496l0.0730039 0.507598c0.0029252,0.0205591 -0.011374,0.0396063 -0.0319331,0.0425315 -0.0205591,0.0029252 -0.0396024,-0.011374 -0.0425315,-0.031937l-0.0716024 -0.49785 -0.0381024 -0.153102c-0.0303858,-0.0299252 -0.0601969,-0.0617244 -0.089311,-0.095189 -0.0610157,-0.0701378 -0.119094,-0.147717 -0.173142,-0.23078 -0.0442441,0.103843 -0.100909,0.189465 -0.165972,0.249583 -0.0460276,0.13522 -0.128583,0.225374 -0.222787,0.225374 -0.0942008,0 -0.17676,-0.0901535 -0.222787,-0.225378 -0.0650591,-0.0601181 -0.12172,-0.145736 -0.165965,-0.249579 -0.0540472,0.0830669 -0.11213,0.160646 -0.173146,0.230783 -0.0291142,0.0334646 -0.0589213,0.0652598 -0.0893071,0.095185l-0.0381024 0.153102 -0.0716024 0.49785c-0.0029252,0.020563 -0.0219685,0.0348622 -0.0425276,0.031937 -0.0205591,-0.0029252 -0.0348622,-0.0219724 -0.0319331,-0.0425315l0.073 -0.507598c0.00101575,-0.00711811 0.00396063,-0.0134882 0.00823228,-0.0186496l0.00714567 -0.027689c-0.188559,0.154882 -0.393799,0.23498 -0.591453,0.196362 -0.0128189,-0.00250787 -0.0252205,-0.00470866 -0.0363189,-0.00667717 -0.121382,-0.0215354 -0.12837,-0.0227756 -0.108685,-0.182075 0.0267874,-0.216776 0.109732,-0.734063 0.24124,-1.23923l-0.15722 -0.0303858 -0.244421 0.0777953c-0.0197441,0.00625984 -0.0408346,-0.0046811 -0.0470906,-0.0244291 -0.00625984,-0.0197441 0.0046811,-0.0408346 0.0244291,-0.0470906l0.248311 -0.0790354c0.00259055,-0.000818898 0.00520472,-0.00134252 0.00780315,-0.00161811l0.201654 -0.0195866c0.0375472,-0.134906 0.0785709,-0.267063 0.122917,-0.390378 0.0609764,-0.169555 0.128425,-0.322756 0.202063,-0.444138l-0.311563 -0.237815c-0.0101929,-0.00583858 -0.0175039,-0.0163543 -0.0187402,-0.0289331l-0.0513858 -0.513866c-0.0020315,-0.0206457 0.0130551,-0.0390315 0.0337008,-0.0410591 0.0206417,-0.0020315 0.0390276,0.0130551 0.0410551,0.0337008l0.0495039 0.495047 0.324043 0.194425c0.00296457,-0.00388976 0.00593701,-0.00772441 0.00892126,-0.0115039 0.110969,-0.14063 0.235205,-0.208402 0.372744,-0.16298 0.0435236,0.0143701 0.0876142,0.0402756 0.132154,0.0790276 0.0164646,0.0143228 0.032185,0.029189 0.0471811,0.0445669 0.0142126,-0.0254213 0.0299213,-0.0487126 0.0469094,-0.0695276 -0.0615354,-0.0189567 -0.122256,-0.0435512 -0.166311,-0.0737835 -0.0400551,-0.0274882 -0.0644567,-0.0609685 -0.0761339,-0.097811 -0.0107598,-0.033937 -0.0103622,-0.0697559 -0.00120079,-0.105622 0.00853543,-0.0334331 0.0248465,-0.0669803 0.046748,-0.0989094 0.0405709,-0.0591063 0.101492,-0.11365 0.167886,-0.151531l-0.00019685 -0.00453543c0.00289764,-0.0495669 0.0260512,-0.0938701 0.0620591,-0.127697 0.0377598,-0.0354803 0.0897402,-0.0594213 0.147016,-0.0655748 0.0099252,-0.00106693 0.0197205,-0.00161417 0.0293346,-0.00161417 0.00961811,0 0.0194134,0.000547244 0.0293386,0.00161417 0.0572756,0.00615354 0.109256,0.0300945 0.147016,0.0655748 0.0357953,0.0336339 0.0589331,0.0775039 0.0621102,0.126508l-0.000244094 0.0056811c0.0664213,0.0378819 0.127378,0.0924449 0.167961,0.151575z"/>
   </g>
  </g>
  <path class="fil2" d="M3.41333 -3.93701e-006c1.88513,0 3.41333,1.5282 3.41333,3.41333 0,1.88513 -1.5282,3.41333 -3.41333,3.41333 -1.88513,0 -3.41333,-1.5282 -3.41333,-3.41333 0,-1.88513 1.5282,-3.41333 3.41333,-3.41333z"/>
  <ellipse class="fil3" cx="3.41947" cy="2.69937" rx="0.341413" ry="0.538607"/>
  <path class="fil4" d="M2.15402 1.71205c-0.0020315,-0.0206457 0.0130551,-0.0390315 0.0337008,-0.0410591 0.0206417,-0.0020315 0.0390276,0.0130551 0.0410551,0.0337008l0.0495039 0.495047 0.34635 0.207811c0.0177992,0.0106457 0.0235984,0.0337087 0.0129528,0.0515079 -0.0106457,0.0177992 -0.0352559,0.0815118 -0.0530551,0.0708661l-0.360382 -0.275075c-0.0101929,-0.00583858 -0.0175039,-0.0163543 -0.0187402,-0.0289331l-0.0513858 -0.513866z"/>
  <path class="fil4" d="M4.61018 1.70469c0.0020315,-0.0206457 0.0204173,-0.0357323 0.0410591,-0.0337008 0.0206417,0.00202756 0.0357283,0.0204134 0.0337008,0.0410591l-0.0513898 0.513866c-0.00124016,0.0125787 -0.00854724,0.0230945 -0.0187441,0.0289331l-0.337433 0.260839c-0.0177992,0.0106457 -0.0653543,-0.0388307 -0.076,-0.0566299 -0.0106457,-0.0177992 -0.00484646,-0.0408622 0.0129528,-0.0515079l0.346346 -0.207811 0.0495079 -0.495047z"/>
  <path class="fil4" d="M2.65856 5.24768c-0.0029252,0.020563 -0.0219685,0.0348622 -0.0425276,0.031937 -0.0205591,-0.0029252 -0.0348622,-0.0219724 -0.0319331,-0.0425315l0.073 -0.507598c0.00101575,-0.00711811 0.00396063,-0.0134882 0.00823228,-0.0186496l0.0955433 -0.37011c0.0125984,-0.0164961 0.036189,-0.0196575 0.052685,-0.00706299 0.0164961,0.0125945 0.0196575,0.036185 0.00706299,0.0526811l-0.0904606 0.363484 -0.0716024 0.49785z"/>
  <path class="fil4" d="M4.25485 5.23709c0.0029252,0.0205591 -0.011374,0.0396063 -0.0319331,0.0425315 -0.0205591,0.0029252 -0.0396024,-0.011374 -0.0425315,-0.031937l-0.0716024 -0.49785 -0.0904567 -0.363484c-0.0125945,-0.0164961 -0.00943307,-0.0400866 0.00706693,-0.0526811 0.0164961,-0.0125945 0.0400866,-0.00943307 0.0526811,0.00706299l0.0955394 0.37011c0.00427559,0.00516142 0.00722047,0.0115315 0.00823228,0.0186496l0.0730039 0.507598z"/>
  <path class="fil4" d="M1.77562 3.49894c-0.0197441,0.00625984 -0.0408346,-0.0046811 -0.0470906,-0.0244291 -0.00625984,-0.0197441 0.0046811,-0.0408346 0.0244291,-0.0470906l0.248311 -0.0790354c0.00259055,-0.000818898 0.00520472,-0.00134252 0.00780315,-0.00159055l0 -2.75591e-005 0.246646 -0.0239567c0.0206457,-0.00194882 0.0389646,0.0132047 0.0409134,0.0338465 0.00194882,0.0206457 -0.0352795,0.105185 -0.0559252,0.107134l-0.220665 -0.0426457 -0.244421 0.0777953z"/>
  <path class="fil4" d="M5.0737 3.42742c0.019748,0.00625591 0.030689,0.0273465 0.0244291,0.0470906 -0.00625591,0.019748 -0.0273465,0.030689 -0.0470906,0.0244291l-0.244421 -0.0777953 -0.263098 0.0129331c-0.0206417,-0.00194882 -0.0154409,-0.0567756 -0.0134921,-0.0774213 0.00194882,-0.0206417 0.0202677,-0.0357953 0.0409134,-0.0338465l0.246646 0.0239567 0 2.75591e-005c0.00259843,0.000248031 0.0052126,0.000771654 0.00780315,0.00159055l0.248311 0.0790354z"/>
  <path class="fil3" d="M3.85506 4.13802c-0.0817441,0.284551 -0.246114,0.478933 -0.435591,0.478933 -0.189476,0 -0.35385,-0.194382 -0.435591,-0.478933 0.0764567,-0.119343 0.145276,-0.24361 0.206213,-0.369681 0.0937874,-0.194035 0.171953,-0.516661 0.229378,-0.725772 0.0574252,0.20911 0.135594,0.531736 0.229378,0.725772 0.060937,0.126071 0.129756,0.250343 0.206213,0.369681z"/>
  <path class="fil5" d="M3.65161 4.49048c-0.0435669,0.15165 -0.131165,0.25524 -0.232146,0.25524 -0.100976,0 -0.188575,-0.103591 -0.232142,-0.25524 0.040748,-0.0635984 0.0774252,-0.129827 0.109902,-0.197016 0.0499803,-0.103409 0.0916378,-0.275346 0.12224,-0.386787 0.0306063,0.111441 0.0722638,0.283378 0.122248,0.386787 0.0324764,0.067189 0.0691496,0.133417 0.109898,0.197016z"/>
  <path class="fil6" d="M3.01333 1.89762c0.0418268,-0.060937 0.105283,-0.117024 0.174067,-0.155 0.00823622,0.135433 0.0864016,0.418429 0.134949,0.559992 -0.0915276,-0.0193661 -0.206925,-0.0535827 -0.278429,-0.10265 -0.0400551,-0.0274882 -0.0644567,-0.0609685 -0.0761339,-0.097811 -0.0107598,-0.033937 -0.0103622,-0.0697559 -0.00120079,-0.105622 0.00853543,-0.0334331 0.0248465,-0.0669803 0.046748,-0.0989094z"/>
  <path class="fil6" d="M3.82561 1.89762c-0.0418228,-0.060937 -0.105283,-0.117024 -0.174063,-0.155 -0.00824016,0.135433 -0.0864055,0.418429 -0.134953,0.559992 0.0915315,-0.0193661 0.206925,-0.0535827 0.278433,-0.10265 0.0400512,-0.0274882 0.0644528,-0.0609685 0.0761299,-0.097811 0.0107598,-0.033937 0.0103622,-0.0697559 0.00120079,-0.105622 -0.00853543,-0.0334331 -0.0248425,-0.0669803 -0.046748,-0.0989094z"/>
  <path class="fil7" d="M3.18102 1.74155c0.00289764,-0.0495669 0.0260512,-0.0938701 0.0620591,-0.127697 0.0377598,-0.0354803 0.0897402,-0.0594213 0.147016,-0.0655748 0.0099252,-0.00106693 0.0197205,-0.00161417 0.0293346,-0.00161417 0.00961811,0 0.0194134,0.000547244 0.0293386,0.00161417 0.0572756,0.00615354 0.109256,0.0300945 0.147016,0.0655748 0.0357953,0.0336339 0.0589331,0.0775039 0.0621378,0.126508l-2.75591e-005 0 -0.000503937 0.0117717c-0.00533071,0.124563 -0.0922835,0.440992 -0.141898,0.545772 -0.0318189,0.0031378 -0.0639488,0.00470472 -0.096063,0.00470472 -0.0321063,0 -0.0642402,-0.00156693 -0.0960551,-0.00470472 -0.0496142,-0.10478 -0.136567,-0.421209 -0.141898,-0.545772l-0.000456693 -0.0105827z"/>
  <path class="fil8" d="M2.85757 4.50154c-0.233618,0.268531 -0.511882,0.429681 -0.776547,0.377969 -0.0128189,-0.00250787 -0.0252205,-0.00470866 -0.0363189,-0.00667717 -0.121382,-0.0215354 -0.12837,-0.0227756 -0.108685,-0.182075 0.0362047,-0.292988 0.174996,-1.13493 0.397622,-1.75396 0.0812598,-0.225957 0.174016,-0.422874 0.277598,-0.554142 0.110969,-0.14063 0.235205,-0.208402 0.372744,-0.16298 0.0435236,0.0143701 0.0876142,0.0402756 0.132154,0.0790276 0.292472,0.254445 0.350508,0.679728 0.265831,1.1131 -0.0389291,0.199232 -0.108126,0.400472 -0.198496,0.587441 -0.0904685,0.187165 -0.202142,0.360039 -0.325902,0.502299z"/>
  <path class="fil9" d="M2.83093 4.47836c0.12837,-0.147555 0.235744,-0.318622 0.320752,-0.494488 0.0883661,-0.182831 0.156681,-0.37952 0.19563,-0.578843 0.0724016,-0.370547 0.051189,-0.813866 -0.25435,-1.07969 -0.035185,-0.0306102 -0.0754921,-0.0574213 -0.120047,-0.0721339 -0.13963,-0.0461142 -0.251835,0.0472677 -0.333945,0.151323 -0.0563504,0.0714094 -0.103067,0.15387 -0.14322,0.235303 -0.0492559,0.0998898 -0.0911969,0.204154 -0.12887,0.308913 -0.0599449,0.166673 -0.110087,0.337705 -0.154756,0.509063 -0.0625157,0.239803 -0.114811,0.483067 -0.159811,0.726748 -0.0311575,0.168728 -0.060189,0.340193 -0.0812402,0.510528 -0.00214567,0.0173819 -0.0149882,0.106295 -0.00298819,0.120559 0.00931102,0.0110669 0.068815,0.019937 0.0827913,0.0224134 0.0123268,0.00218504 0.0246417,0.00438976 0.0369291,0.0067874 0.0244724,0.00478346 0.0492795,0.00764173 0.0741969,0.00859843 0.120248,0.00462992 0.237512,-0.0355354 0.340717,-0.0948189 0.12413,-0.0713031 0.234614,-0.172681 0.328213,-0.280268z"/>
  <path class="fil10" d="M2.84133 2.43448c-0.0011063,0.120071 -0.0203031,0.551937 0.0176614,0.635732 -0.0519843,-0.0528307 -0.0402717,-0.53478 -0.0412047,-0.635732 0,-0.00650394 0.00527165,-0.0117717 0.0117717,-0.0117717 0.00650394,0 0.0117717,0.00526772 0.0117717,0.0117717z"/>
  <path class="fil10" d="M3.18935 2.94457c-0.277201,0.185039 -0.470996,0.19985 -0.770992,0.431181l-0.0302717 0.0241063 -1.5748e-005 -1.5748e-005c0.241039,-0.246189 0.51637,-0.288335 0.788079,-0.474772 0.00538583,-0.00364567 0.0127047,-0.00223228 0.0163504,0.00315354 0.00364567,0.00538189 0.00223228,0.0127008 -0.00314961,0.0163465z"/>
  <path class="fil10" d="M2.5058 3.31156c-0.00166929,0.286756 -0.239717,0.669756 -0.306091,0.965374 0.0411457,-0.305504 0.284307,-0.663028 0.282547,-0.965374 0,-0.00650394 0.00527165,-0.0117717 0.0117717,-0.0117717 0.00650394,0 0.0117717,0.00526772 0.0117717,0.0117717z"/>
  <path class="fil10" d="M3.14528 3.49493c-0.0587638,0.0472165 -0.516866,0.409024 -0.533516,0.411169l-3.93701e-006 -1.1811e-005c0.00385433,-0.0021378 0.00697244,-0.00332677 0.0100157,-0.00622835 0.141429,-0.134791 0.346898,-0.298236 0.504248,-0.41848 0.00374016,-0.00531496 0.0110866,-0.00659055 0.0164016,-0.00285039 0.0053189,0.00374016 0.00659449,0.0110827 0.00285433,0.0164016z"/>
  <path class="fil10" d="M2.83544 3.72949c-0.140524,-0.00213386 -0.24011,0.0490669 -0.382618,0.0588661 0.13028,-0.0284055 0.250335,-0.0804016 0.382618,-0.0824094 0.00650394,0 0.0117717,0.00527165 0.0117717,0.0117717 0,0.00650394 -0.00526772,0.0117717 -0.0117717,0.0117717z"/>
  <path class="fil10" d="M2.75892 3.81779c-0.0237992,0.245732 -0.150319,0.535992 -0.211913,0.794665 0.0436614,-0.283205 0.166484,-0.529539 0.18837,-0.794665 0,-0.0065 0.00526772,-0.0117717 0.0117717,-0.0117717 0.0065,0 0.0117717,0.00527165 0.0117717,0.0117717z"/>
  <path class="fil10" d="M2.63294 4.3311c-0.106201,0.0900866 -0.443075,0.281555 -0.574504,0.322563 0.139906,-0.0667047 0.443224,-0.240004 0.555693,-0.336724 0.00390945,-0.00519291 0.0112913,-0.00623228 0.0164843,-0.00232283 0.00519685,0.00390945 0.00623622,0.0112913 0.00232677,0.0164843z"/>
  <path class="fil10" d="M2.83816 2.73684c-0.123791,0.12122 -0.272563,0.257921 -0.402992,0.368693 0.0792126,-0.103366 0.277492,-0.273992 0.385791,-0.384768 0.00443701,-0.00474803 0.0118858,-0.005 0.0166378,-0.000562992 0.00474803,0.00443701 0.005,0.0118898 0.000562992,0.0166378z"/>
  <path class="fil8" d="M4.75792 4.87951c-0.264665,0.0517126 -0.542929,-0.109441 -0.776551,-0.377972 -0.12376,-0.14226 -0.235429,-0.31513 -0.325898,-0.502295 -0.090374,-0.186969 -0.159567,-0.388209 -0.198496,-0.587437 -0.0846772,-0.433374 -0.0266417,-0.858661 0.265831,-1.1131 0.0445433,-0.038752 0.0886299,-0.0646575 0.132154,-0.0790276 0.137539,-0.0454213 0.261776,0.0223504 0.372744,0.16298 0.103583,0.131268 0.196339,0.328185 0.277598,0.554142 0.222626,0.619031 0.361417,1.46097 0.397622,1.75396 0.0196811,0.159299 0.0126969,0.160539 -0.108685,0.182075 -0.0110984,0.0019685 -0.0235,0.00416929 -0.0363189,0.00667717z"/>
  <path class="fil9" d="M4.75115 4.84485c0.0122874,-0.00239764 0.0246024,-0.00460236 0.0369291,-0.0067874 0.0139764,-0.00247638 0.0734803,-0.0113465 0.0827874,-0.0224134 0.012,-0.0142638 -0.00084252,-0.103177 -0.00298819,-0.120559 -0.0210472,-0.170335 -0.0500827,-0.341799 -0.0812362,-0.510528 -0.0450039,-0.243685 -0.0972992,-0.486945 -0.159811,-0.726752 -0.0446693,-0.171354 -0.094811,-0.342386 -0.154756,-0.509059 -0.0376732,-0.10476 -0.0796142,-0.209024 -0.12887,-0.308913 -0.0401535,-0.0814331 -0.0868701,-0.163894 -0.14322,-0.235303 -0.0821102,-0.104055 -0.194315,-0.197437 -0.333945,-0.151323 -0.0445591,0.0147126 -0.0848622,0.0415236 -0.120047,0.0721339 -0.305547,0.265815 -0.326752,0.709146 -0.254354,1.07969 0.0389488,0.199323 0.107264,0.396012 0.195634,0.578839 0.0850079,0.175866 0.192374,0.346929 0.320748,0.494484 0.0936024,0.107591 0.204087,0.208969 0.328217,0.280276 0.103213,0.0592835 0.220472,0.0994449 0.340724,0.094815 0.0249134,-0.000956693 0.0497205,-0.00381496 0.074189,-0.00859843z"/>
  <path class="fil10" d="M4.02709 2.43448c0.00111024,0.120071 0.0203031,0.551937 -0.0176575,0.635732 0.0519803,-0.0528307 0.0402717,-0.53478 0.0412008,-0.635732 0,-0.00650394 -0.00526772,-0.0117717 -0.0117717,-0.0117717 -0.0065,0 -0.0117717,0.00526772 -0.0117717,0.0117717z"/>
  <path class="fil10" d="M3.67908 2.94457c0.277197,0.185039 0.470996,0.19985 0.770992,0.431181l0.0302677 0.0241063 1.5748e-005 -1.5748e-005c-0.241039,-0.246189 -0.516366,-0.288335 -0.788079,-0.474772 -0.00538189,-0.00364567 -0.0127008,-0.00223228 -0.0163465,0.00315354 -0.00364567,0.00538189 -0.00223622,0.0127008 0.00314961,0.0163465z"/>
  <path class="fil10" d="M4.36262 3.31156c0.00166929,0.286756 0.239717,0.669756 0.306094,0.965374 -0.0411496,-0.305504 -0.284311,-0.663028 -0.282547,-0.965374 0,-0.00650394 -0.00527165,-0.0117717 -0.0117756,-0.0117717 -0.0065,0 -0.0117717,0.00526772 -0.0117717,0.0117717z"/>
  <path class="fil10" d="M3.72314 3.49493c0.0587677,0.0472165 0.516866,0.409024 0.533516,0.411169l7.87402e-006 -1.1811e-005c-0.00385433,-0.0021378 -0.00697244,-0.00332677 -0.0100197,-0.00622835 -0.141429,-0.134791 -0.346898,-0.298236 -0.504248,-0.41848 -0.00374016,-0.00531496 -0.0110827,-0.00659055 -0.0164016,-0.00285039 -0.00531496,0.00374016 -0.00659449,0.0110827 -0.00285433,0.0164016z"/>
  <path class="fil10" d="M4.03298 3.72949c0.14052,-0.00213386 0.24011,0.0490669 0.382614,0.0588661 -0.13028,-0.0284055 -0.250335,-0.0804016 -0.382614,-0.0824094 -0.00650394,0 -0.0117756,0.00527165 -0.0117756,0.0117717 0,0.00650394 0.00527165,0.0117717 0.0117756,0.0117717z"/>
  <path class="fil10" d="M4.1095 3.81779c0.0237953,0.245732 0.150315,0.535992 0.211909,0.794665 -0.0436575,-0.283205 -0.166484,-0.529539 -0.188366,-0.794665 0,-0.0065 -0.00527165,-0.0117717 -0.0117717,-0.0117717 -0.00650394,0 -0.0117717,0.00527165 -0.0117717,0.0117717z"/>
  <path class="fil10" d="M4.23548 4.3311c0.106201,0.0900866 0.443075,0.281555 0.5745,0.322563 -0.139906,-0.0667047 -0.443224,-0.240004 -0.555689,-0.336724 -0.00390945,-0.00519291 -0.0112913,-0.00623228 -0.0164843,-0.00232283 -0.00519685,0.00390945 -0.00623622,0.0112913 -0.00232677,0.0164843z"/>
  <path class="fil10" d="M4.03026 2.73684c0.123791,0.12122 0.272567,0.257921 0.402996,0.368693 -0.0792126,-0.103366 -0.277496,-0.273992 -0.385791,-0.384768 -0.00443701,-0.00474803 -0.0118898,-0.005 -0.0166378,-0.000562992 -0.00475197,0.00443701 -0.00500394,0.0118898 -0.000566929,0.0166378z"/>
 </g>
</svg>
